<?xml version="1.0" standalone="no"?>
<!DOCTYPE svg PUBLIC "-//W3C//DTD SVG 20010904//EN"
 "http://www.w3.org/TR/2001/REC-SVG-20010904/DTD/svg10.dtd">
<svg version="1.0" xmlns="http://www.w3.org/2000/svg"
 width="130.000000pt" height="130.000000pt" viewBox="0 0 130.000000 130.000000"
 preserveAspectRatio="xMidYMid meet">

<g transform="translate(0.000000,130.000000) scale(0.100000,-0.100000)"
fill="#000000" stroke="none">
<path d="M327 1203 c-4 -3 -7 -15 -7 -25 0 -17 -1 -18 -25 -2 -29 19 -30 17
-39 -65 -4 -38 -12 -60 -30 -77 -13 -14 -29 -44 -35 -67 -5 -24 -20 -52 -31
-62 -24 -22 -25 -38 -3 -76 20 -34 70 -53 113 -44 35 8 35 8 50 -137 6 -61 21
-128 40 -180 22 -61 30 -99 30 -149 0 -64 -2 -69 -27 -81 -35 -17 -67 -62 -60
-83 6 -13 20 -15 78 -13 l72 3 19 69 c10 38 23 77 29 88 10 19 12 19 28 -8 10
-16 25 -35 34 -43 15 -12 15 -15 -8 -33 -17 -13 -25 -29 -25 -49 l0 -29 243 0
c220 0 246 2 286 20 65 30 108 83 133 163 28 95 20 133 -63 293 -38 73 -69
142 -69 154 0 34 17 57 50 68 28 10 43 42 20 42 -21 0 -69 -30 -84 -52 -33
-47 -19 -95 79 -273 51 -92 59 -134 40 -207 -8 -34 -27 -77 -41 -96 -29 -37
-80 -72 -106 -72 -15 0 -15 4 2 48 56 148 21 344 -81 457 -60 64 -156 116
-250 134 l-64 13 -24 75 c-35 109 -91 187 -180 250 -75 54 -83 58 -94 46z m63
-59 c88 -59 165 -172 194 -286 l13 -52 80 -17 c102 -22 173 -58 233 -118 102
-102 135 -312 71 -455 l-20 -46 -200 0 c-175 0 -200 2 -195 15 7 18 29 24 99
27 63 4 61 19 -4 34 -67 15 -97 36 -111 79 -26 78 18 147 107 170 54 14 68 42
18 37 -76 -8 -145 -63 -161 -127 -4 -15 -17 -46 -30 -69 -13 -22 -31 -68 -40
-103 l-17 -63 -43 0 c-61 0 -55 29 9 44 l28 7 -4 102 c-3 80 -9 116 -30 169
-17 44 -30 103 -37 172 -6 59 -13 112 -15 119 -3 8 16 18 55 30 39 11 60 23
60 32 0 19 -2 19 -78 -5 -35 -11 -88 -20 -118 -20 -46 0 -56 3 -70 25 -16 25
-16 27 8 53 14 15 29 44 32 64 7 39 38 68 86 83 33 10 40 22 40 73 0 47 4 49
40 26z m-70 -33 c0 -4 -7 -16 -15 -27 -13 -18 -14 -16 -15 20 0 33 2 37 15 26
8 -7 15 -16 15 -19z"/>
</g>
</svg>
