<?xml version="1.0" standalone="no"?>
<!DOCTYPE svg PUBLIC "-//W3C//DTD SVG 20010904//EN"
 "http://www.w3.org/TR/2001/REC-SVG-20010904/DTD/svg10.dtd">
<svg version="1.0" xmlns="http://www.w3.org/2000/svg"
 width="130.000000pt" height="130.000000pt" viewBox="0 0 130.000000 130.000000"
 preserveAspectRatio="xMidYMid meet">

<g transform="translate(0.000000,130.000000) scale(0.100000,-0.100000)"
fill="#000000" stroke="none">
<path d="M294 1170 c-18 -12 -37 -34 -44 -50 -12 -28 -16 -30 -64 -30 -29 0
-57 -5 -64 -12 -7 -7 -12 -35 -12 -64 0 -61 19 -90 85 -128 25 -15 45 -32 45
-39 0 -7 -9 -37 -21 -67 -27 -70 -23 -170 10 -225 18 -32 21 -51 21 -165 l0
-129 -29 -15 c-39 -21 -57 -96 -29 -124 17 -17 969 -17 986 0 31 31 -1 116
-56 150 -29 18 -55 23 -129 26 l-93 4 0 79 c0 152 -59 242 -204 309 -90 41
-140 84 -167 145 -23 49 -24 128 -4 185 18 51 19 99 2 121 -39 51 -173 67
-233 29z m180 -31 c35 -16 39 -34 22 -93 -30 -103 -58 -110 -101 -25 -18 35
-30 48 -37 41 -28 -28 42 -142 87 -142 19 0 25 -8 34 -47 25 -99 80 -159 196
-213 152 -71 195 -147 195 -348 0 -112 0 -114 -29 -143 l-29 -29 -146 0 -146
0 0 27 c0 39 27 63 71 63 55 0 69 8 69 42 0 39 46 84 93 93 48 9 50 35 3 35
-56 0 -111 -47 -130 -112 -4 -12 -16 -18 -36 -18 -62 0 -99 -35 -100 -92 0
-35 -2 -38 -27 -38 l-28 0 0 152 c0 129 -2 153 -15 153 -12 0 -15 -23 -18
-139 -1 -82 -7 -145 -14 -153 -7 -9 -36 -13 -90 -13 l-79 0 3 37 c2 30 8 38
28 43 l25 6 3 152 c2 139 1 155 -19 194 -29 57 -29 147 0 214 29 65 22 87 -44
129 -62 40 -77 63 -73 108 3 32 4 32 61 35 55 3 58 4 76 41 11 20 30 43 43 49
26 13 114 8 152 -9z m633 -899 c30 -18 57 -73 46 -92 -2 -5 -65 -8 -140 -8
-125 0 -135 1 -127 18 4 9 9 36 12 60 l4 42 87 0 c68 0 93 -4 118 -20z"/>
</g>
</svg>
