<?xml version="1.0" standalone="no"?>
<!DOCTYPE svg PUBLIC "-//W3C//DTD SVG 20010904//EN"
 "http://www.w3.org/TR/2001/REC-SVG-20010904/DTD/svg10.dtd">
<svg version="1.0" xmlns="http://www.w3.org/2000/svg"
 width="130.000000pt" height="130.000000pt" viewBox="0 0 130.000000 130.000000"
 preserveAspectRatio="xMidYMid meet">

<g transform="translate(0.000000,130.000000) scale(0.100000,-0.100000)"
fill="#000000" stroke="none">
<path d="M289 1133 c-20 -24 -15 -127 10 -201 12 -35 19 -67 16 -71 -2 -5 -22
-12 -42 -16 -58 -11 -69 -20 -123 -103 -61 -93 -63 -125 -11 -154 23 -13 49
-18 80 -17 50 4 48 7 66 -104 7 -46 56 -103 126 -148 45 -28 50 -35 44 -58 -4
-14 -10 -27 -13 -29 -51 -18 -77 -40 -77 -62 0 -22 5 -25 39 -28 52 -4 84 11
126 61 l34 42 91 0 c49 0 99 2 109 5 10 3 21 -1 23 -7 3 -9 -9 -13 -44 -13
-74 0 -122 -17 -129 -45 -3 -13 -3 -29 1 -34 10 -18 380 -15 394 3 8 9 25 12
58 8 33 -3 55 0 79 13 34 18 84 83 84 109 0 19 -28 35 -50 29 -15 -4 -18 7
-24 75 -9 116 -30 167 -95 233 -81 82 -142 103 -281 96 -58 -3 -119 -11 -136
-18 -27 -11 -37 -10 -67 4 -19 9 -48 17 -64 17 -23 0 -31 7 -45 38 -10 20 -23
44 -30 54 -10 13 -7 22 16 52 40 54 56 99 56 163 0 108 -17 127 -80 92 l-37
-21 -26 26 c-30 30 -58 33 -78 9z m66 -33 c17 -18 16 -21 -4 -63 -11 -24 -21
-49 -21 -55 0 -7 -4 -12 -9 -12 -17 0 -30 128 -14 143 12 12 30 7 48 -13z
m131 -37 c10 -51 -10 -118 -53 -182 -36 -52 -36 -54 -20 -80 9 -14 24 -42 34
-61 21 -41 31 -50 49 -43 6 2 34 -5 62 -17 48 -21 51 -21 108 -4 119 35 258
18 346 -42 126 -87 163 -355 57 -409 -15 -8 -35 -15 -43 -15 -8 0 -20 -9 -26
-20 -10 -19 -21 -20 -185 -20 -158 0 -204 7 -159 24 9 3 49 6 89 6 41 0 76 4
79 8 3 5 -4 33 -15 63 -54 140 -2 269 107 269 56 0 84 -12 120 -49 32 -34 44
-39 44 -17 0 23 -77 84 -115 92 -84 15 -145 -13 -183 -87 -21 -38 -23 -54 -19
-121 5 -84 8 -79 -58 -92 -16 -4 -49 -3 -72 1 l-43 8 35 44 c26 33 35 53 35
83 0 45 -44 138 -65 138 -19 0 -19 0 10 -51 15 -27 25 -60 25 -84 0 -35 -10
-51 -82 -138 -77 -91 -84 -97 -120 -97 -47 0 -48 6 -5 23 17 8 38 22 46 31 19
22 21 147 4 153 -9 3 -13 -6 -13 -26 l0 -31 -52 35 c-68 45 -97 88 -105 156
-9 82 -17 92 -67 86 -53 -7 -113 20 -108 48 5 28 89 153 112 165 10 5 29 10
42 10 43 0 58 20 63 90 3 36 15 84 26 108 20 41 84 96 100 86 5 -2 11 -21 15
-41z m714 -785 c0 -24 -51 -77 -86 -88 -32 -11 -67 -4 -35 8 7 2 23 16 35 30
40 48 56 62 71 62 8 0 15 -5 15 -12z"/>
</g>
</svg>
