<?xml version="1.0" standalone="no"?>
<!DOCTYPE svg PUBLIC "-//W3C//DTD SVG 20010904//EN"
 "http://www.w3.org/TR/2001/REC-SVG-20010904/DTD/svg10.dtd">
<svg version="1.0" xmlns="http://www.w3.org/2000/svg"
 width="130.000000pt" height="130.000000pt" viewBox="0 0 130.000000 130.000000"
 preserveAspectRatio="xMidYMid meet">

<g transform="translate(0.000000,130.000000) scale(0.100000,-0.100000)"
fill="#000000" stroke="none">
<path d="M555 613 c-63 -14 -121 -39 -150 -65 -34 -29 -34 -29 -67 -12 -18 9
-62 19 -99 22 -62 4 -67 3 -87 -23 -14 -17 -22 -42 -22 -65 0 -46 24 -59 128
-69 90 -9 110 -24 87 -67 -26 -50 -19 -86 25 -137 75 -85 152 -112 184 -65 24
34 20 54 -20 98 -20 22 -35 42 -33 45 3 2 24 -1 48 -6 45 -10 97 -6 186 13 80
18 135 46 175 89 l37 40 51 -32 c83 -51 172 -43 172 17 0 52 -47 104 -95 104
-18 0 -19 5 -5 31 14 25 -3 31 -165 64 -115 24 -287 32 -350 18z m175 -32 c0
-5 -13 -14 -30 -21 -25 -10 -34 -10 -55 4 -14 9 -25 19 -25 21 0 3 25 5 55 5
30 0 55 -4 55 -9z m-163 -17 c-16 -9 -36 -12 -45 -9 -15 6 -15 8 3 15 11 5 31
9 45 9 l25 0 -28 -15z m278 7 c9 -15 -32 -23 -55 -11 -11 6 -20 13 -20 15 0 9
69 5 75 -4z m95 -20 c0 -9 -91 -71 -103 -71 -20 0 -2 33 30 55 38 25 73 33 73
16z m-420 -69 c0 -32 -1 -33 -21 -18 -12 8 -30 27 -40 43 -23 35 -6 48 33 25
22 -13 28 -24 28 -50z m140 -10 l0 -43 -52 3 -53 3 -3 40 c-2 35 1 42 25 57
26 15 30 15 55 0 24 -14 28 -23 28 -60z m140 18 c0 -25 -5 -30 -37 -39 -64
-18 -73 -15 -73 23 0 26 7 39 27 54 25 18 30 19 55 6 21 -11 28 -22 28 -44z
m220 42 c0 -13 -69 -66 -130 -100 -93 -51 -154 -66 -265 -67 -88 0 -105 3
-138 23 -45 29 -91 86 -84 106 4 10 19 1 54 -34 66 -66 128 -80 245 -57 86 17
231 82 264 118 17 19 54 26 54 11z m-697 -27 c23 -9 45 -28 55 -48 9 -17 29
-44 45 -60 19 -20 27 -39 27 -63 0 -40 28 -100 59 -128 24 -22 28 -54 7 -62
-8 -3 -27 1 -43 10 -37 19 -113 101 -113 122 0 9 10 34 22 56 l23 40 -35 29
c-27 23 -44 29 -85 30 -27 0 -66 6 -85 13 -30 11 -35 18 -33 41 1 16 8 32 15
37 18 12 95 3 141 -17z m761 -42 c19 -4 32 -16 41 -37 7 -17 11 -34 9 -38 -14
-23 -103 1 -146 39 -16 14 -16 17 5 34 13 11 30 17 42 14 11 -3 33 -8 49 -12z
m-234 -98 c-40 -49 -258 -83 -332 -52 -37 16 -56 46 -20 32 70 -28 222 -21
310 14 26 11 49 19 51 20 2 1 -2 -6 -9 -14z"/>
</g>
</svg>
