<?xml version="1.0" standalone="no"?>
<!DOCTYPE svg PUBLIC "-//W3C//DTD SVG 20010904//EN"
 "http://www.w3.org/TR/2001/REC-SVG-20010904/DTD/svg10.dtd">
<svg version="1.0" xmlns="http://www.w3.org/2000/svg"
 width="980.000000pt" height="980.000000pt" viewBox="0 0 980.000000 980.000000"
 preserveAspectRatio="xMidYMid meet">

<g transform="translate(0.000000,980.000000) scale(0.100000,-0.100000)"
fill="#000000" stroke="none">
<path d="M4560 9789 c-1035 -75 -1998 -463 -2800 -1128 -150 -123 -501 -475
-622 -621 -881 -1068 -1270 -2403 -1098 -3765 119 -934 501 -1801 1124 -2545
98 -117 370 -393 496 -504 1328 -1166 3158 -1531 4825 -962 895 305 1700 879
2281 1627 735 946 1100 2126 1024 3314 -70 1094 -491 2109 -1216 2935 -112
128 -386 398 -509 501 -763 642 -1665 1026 -2665 1134 -174 19 -664 27 -840
14z m1607 -3084 c155 -40 303 -121 427 -235 l41 -38 112 28 c129 34 279 91
401 155 47 24 88 43 90 41 2 -2 -10 -36 -27 -75 -62 -146 -176 -290 -306 -389
-33 -25 -64 -48 -68 -52 -31 -26 295 51 433 103 52 20 96 35 97 34 1 -2 -32
-47 -73 -101 -91 -118 -211 -240 -319 -326 l-80 -63 -2 -163 c-6 -427 -103
-814 -307 -1219 -223 -443 -519 -782 -915 -1047 -764 -512 -1826 -586 -2677
-188 -80 38 -314 167 -314 173 0 1 107 2 238 3 218 0 247 2 363 27 253 54 474
144 678 277 146 95 147 96 63 103 -196 19 -405 112 -559 251 -99 90 -226 284
-258 394 -6 21 -4 22 22 15 45 -13 272 -8 338 6 l60 13 -87 29 c-343 111 -586
383 -659 734 -10 50 -19 113 -19 142 l0 51 79 -34 c81 -35 206 -68 301 -78
l55 -7 -35 28 c-137 107 -254 256 -314 401 -58 136 -71 209 -71 382 0 176 17
260 82 402 l36 79 70 -78 c233 -261 516 -480 814 -631 342 -174 625 -254 1046
-296 l58 -6 -8 72 c-36 327 50 599 261 817 120 124 248 202 415 255 163 51
343 55 518 11z"/>
</g>
</svg>
